<svg aria-hidden="true" version="1.1" xmlns="http://www.w3.org/2000/svg" xmlns:xlink="http://www.w3.org/1999/xlink">
<defs>
<symbol id="envelope" viewBox="0 0 43 32">
<path d="M38.667 0h-34.667c-2.205 0-4 1.795-4 4v24c0 2.205 1.795 4 4 4h34.667c2.205 0 4-1.795 4-4v-24c0-2.205-1.795-4-4-4zM38.667 2.667c0.181 0 0.355 0.037 0.512 0.104l-17.845 15.467-17.845-15.467c0.151-0.065 0.327-0.104 0.512-0.104h34.667zM38.667 29.333h-34.667c-0.736 0-1.333-0.597-1.333-1.333v0-22.413l17.792 15.421c0.233 0.203 0.539 0.327 0.875 0.327s0.642-0.124 0.876-0.328l-0.002 0.001 17.792-15.421v22.413c0 0.736-0.597 1.333-1.333 1.333v0z"></path>
</symbol>
<symbol id="smartphone" viewBox="0 0 10 16">
<path  d="M8.5 0h-7c-0.827 0-1.5 0.673-1.5 1.5v13c0 0.827 0.673 1.5 1.5 1.5h7c0.827 0 1.5-0.673 1.5-1.5v-13c0-0.827-0.673-1.5-1.5-1.5zM1.5 1h7c0.276 0 0.5 0.224 0.5 0.5v0 10.5h-8v-10.5c0-0.276 0.224-0.5 0.5-0.5v0zM8.5 15h-7c-0.276 0-0.5-0.224-0.5-0.5v0-1.5h8v1.5c0 0.276-0.224 0.5-0.5 0.5v0z"></path>
<path  d="M2.354 13.739c0.090 0.082 0.146 0.199 0.146 0.33s-0.056 0.248-0.146 0.33l-0 0c-0.093 0.085-0.217 0.137-0.354 0.137s-0.261-0.052-0.354-0.138l0 0c-0.090-0.082-0.146-0.199-0.146-0.33s0.056-0.248 0.146-0.33l0-0c0.093-0.085 0.217-0.137 0.354-0.137s0.261 0.052 0.354 0.138l-0-0z"></path>
</symbol>
<symbol id="antenna" viewBox="0 0 16 16">
<path fill="#212121" style="fill: var(--color3, #212121)" d="M15.387 11.049l-4.222-4.253 0.469-2.308c0.112 0.045 0.243 0.072 0.379 0.073h0.004c0.004 0 0.008 0 0.013 0 0.596 0 1.080-0.483 1.080-1.080s-0.483-1.080-1.080-1.080c-0.596 0-1.080 0.483-1.080 1.080 0 0.13 0.023 0.254 0.065 0.369l-0.002-0.007-2.48 0.303-4.045-4.067c-0.048-0.049-0.115-0.079-0.188-0.080h-0c-0.070 0-0.137 0.028-0.187 0.078l-0.756 0.752c-0.048 0.048-0.078 0.115-0.078 0.189s0.030 0.14 0.078 0.189v0l0.407 0.413c-0.571 1.031-0.908 2.261-0.908 3.569 0 2.053 0.828 3.912 2.168 5.263l-0-0c0.021 0.021 0.046 0.037 0.073 0.049-0.016 0.082-0.025 0.176-0.026 0.273v3.094h-3.2c-0.736 0.001-1.333 0.597-1.334 1.333v0.533c0 0.147 0.12 0.267 0.267 0.267h12.267c0.147 0 0.267-0.119 0.267-0.267v-0.533c-0.001-0.736-0.597-1.332-1.333-1.333h-3.2v-1.371c0.501 0.105 1.012 0.159 1.524 0.16 1.29-0.001 2.502-0.332 3.559-0.911l-0.039 0.019 0.409 0.411c0.049 0.051 0.117 0.079 0.188 0.080 0.070-0 0.137-0.028 0.187-0.078l0.756-0.752c0.048-0.048 0.078-0.115 0.078-0.189s-0.030-0.14-0.078-0.189v0zM11.64 3.117c0.096-0.096 0.229-0.155 0.376-0.155 0.295 0 0.533 0.239 0.533 0.533s-0.239 0.533-0.533 0.533c-0 0-0 0-0 0h-0.002c-0.293-0.002-0.53-0.24-0.53-0.533 0-0.148 0.060-0.281 0.157-0.378l0-0h-0.001zM11.012 4.869l-0.299 1.473-0.588-0.591 0.887-0.882zM10.709 4.418l-0.96 0.955-0.743-0.747 1.703-0.208zM12.002 14.4c0.442 0 0.8 0.358 0.8 0.8v0 0.267h-11.733v-0.267c0-0.442 0.358-0.8 0.8-0.8v0h10.133zM8.269 13.333v0.533h-2.667v-0.533h2.667zM5.602 12.8v-2.027c0-0.647 0.598-1.173 1.333-1.173s1.333 0.526 1.333 1.173v2.027h-2.667zM8.802 11.952v-1.179c0-0.941-0.837-1.707-1.867-1.707-0.009-0-0.019-0-0.029-0-0.676 0-1.27 0.353-1.607 0.885l-0.005 0.008c-1.18-1.241-1.906-2.923-1.906-4.775 0-1.157 0.283-2.248 0.785-3.207l-0.018 0.038 9.301 9.354c-0.911 0.473-1.99 0.751-3.133 0.751-0.539 0-1.064-0.062-1.568-0.179l0.047 0.009zM14.447 11.61l-10.528-10.59 0.377-0.376 3.968 3.99c0.002 0 0.003 0.003 0.005 0.005l6.557 6.596-0.378 0.376z"></path>
<path fill="#2196f3" style="fill: var(--color1, #2196f3)" d="M6.938 10.133h-0.002c-0 0-0.001 0-0.001 0-0.442 0-0.8 0.358-0.8 0.8s0.357 0.799 0.799 0.8h0.002c0 0 0.001 0 0.001 0 0.442 0 0.8-0.358 0.8-0.8s-0.358-0.799-0.799-0.8h-0zM7.124 11.123c-0.048 0.048-0.115 0.078-0.188 0.078-0.147 0-0.267-0.119-0.267-0.267s0.119-0.266 0.266-0.267h0c0.147 0.001 0.265 0.12 0.265 0.267 0 0.074-0.030 0.141-0.079 0.189l-0 0h0.002z"></path>
</symbol>
<symbol id="clock" viewBox="0 0 16 16">
<path fill="#212121" style="fill: var(--color3, #212121)" d="M15.648 7.651c-0.001-4.226-3.427-7.651-7.654-7.651s-7.651 3.428-7.651 7.654c0.001 3.394 2.211 6.271 5.27 7.272l0.054 0.015c0.030 0.010 0.062 0.014 0.094 0.014 0.060 0 0.119-0.016 0.171-0.047 0.068-0.040 0.118-0.104 0.142-0.178l1.932-6.125c0.527-0.002 0.953-0.429 0.953-0.956 0-0.528-0.428-0.956-0.956-0.956-0.152 0-0.295 0.035-0.422 0.098l0.006-0.003-2.553-2.553c-0.057-0.055-0.135-0.089-0.221-0.089-0.176 0-0.319 0.143-0.319 0.319 0 0.086 0.034 0.164 0.089 0.221l-0-0 2.552 2.555c-0.060 0.12-0.096 0.263-0.096 0.413 0 0.301 0.142 0.569 0.362 0.74l0.002 0.002-1.841 5.837c-3.639-1.341-5.502-5.377-4.162-9.016s5.377-5.502 9.016-4.162c3.639 1.34 5.502 5.377 4.162 9.016-0.672 1.791-2.002 3.203-3.687 3.969l-0.044 0.018-0.199-0.937c-0.031-0.146-0.159-0.253-0.312-0.253-0.082 0-0.156 0.031-0.213 0.081l0-0-1.918 1.713c-0.066 0.059-0.107 0.144-0.107 0.238 0 0.142 0.092 0.262 0.22 0.303l0.002 0.001 2.449 0.782c0.029 0.010 0.063 0.015 0.098 0.015 0.176 0 0.319-0.143 0.319-0.319 0-0.024-0.003-0.047-0.007-0.069l0 0.002-0.195-0.919c2.764-1.187 4.664-3.886 4.664-7.028 0-0.006 0-0.011-0-0.017v0.001zM7.996 7.332c0.176 0 0.319 0.143 0.319 0.319s-0.143 0.319-0.319 0.319v0c-0.176 0-0.319-0.143-0.319-0.319s0.143-0.319 0.319-0.319v0zM9.046 14.764l1.092-0.974 0.301 1.42-1.394-0.446z"></path>
<path fill="#2196f3" style="fill: var(--color1, #2196f3)" d="M7.677 1.592v0.638c0 0.176 0.143 0.319 0.319 0.319s0.319-0.143 0.319-0.319v0-0.638c0-0.176-0.143-0.319-0.319-0.319s-0.319 0.143-0.319 0.319v0zM1.938 7.332c-0.176 0-0.319 0.143-0.319 0.319s0.143 0.319 0.319 0.319h0.638c0.176 0 0.319-0.143 0.319-0.319s-0.143-0.319-0.319-0.319h-0.638zM14.054 7.97c0.176 0 0.319-0.143 0.319-0.319s-0.143-0.319-0.319-0.319h-0.638c-0.176 0-0.319 0.143-0.319 0.319s0.143 0.319 0.319 0.319h0.638z"></path>
</symbol>
<symbol id="diagram" viewBox="0 0 16 16">
<path fill="#2196f3" style="fill: var(--color1, #2196f3)" d="M7.463 7.482h0.533v2.399h-0.533v-2.399zM9.595 8.549h0.533v1.333h-0.533v-1.333zM5.331 9.348h0.533v0.533h-0.533v-0.533zM3.731 9.081h0.533v0.8h-0.533v-0.8z"></path>
<path fill="#212121" style="fill: var(--color3, #212121)" d="M0.8 14.145h12.793c0 0 0 0 0 0 0.442 0 0.8-0.358 0.8-0.8v0-1.066c0-0.442-0.358-0.8-0.8-0.8v0h-0.267v-6.647l1.514-1.434c0.104 0.052 0.226 0.083 0.355 0.083 0.444 0 0.804-0.36 0.804-0.804s-0.36-0.804-0.804-0.804c-0.444 0-0.804 0.36-0.804 0.804 0 0.123 0.028 0.24 0.078 0.345l-0.002-0.005-1.141 1.081v-0.615c0-0.442-0.358-0.8-0.8-0.8v0h-10.661c-0.442 0-0.8 0.358-0.8 0.8v0 7.996h-0.267c-0.442 0-0.8 0.358-0.8 0.8v0 1.066c0 0.442 0.358 0.8 0.8 0.8v0zM15.192 2.418c0.147 0 0.267 0.119 0.267 0.267s-0.119 0.267-0.267 0.267v0c-0.147 0-0.267-0.119-0.267-0.267s0.119-0.267 0.267-0.267v0zM1.599 3.484c0-0.147 0.119-0.267 0.267-0.267h10.661c0.147 0 0.267 0.119 0.267 0.267v1.119l-0.533 0.507v-1.093c0-0.147-0.12-0.267-0.267-0.267h-9.595c-0.147 0-0.267 0.119-0.267 0.267v6.663c0 0.147 0.12 0.267 0.267 0.267h9.595c0.147 0 0.267-0.119 0.267-0.267v-4.837l0.533-0.505v6.142h-11.194v-7.995zM3.998 6.949c-0.001 0-0.002 0-0.002 0-0.442 0-0.8 0.358-0.8 0.8s0.358 0.8 0.8 0.8c0.216 0 0.412-0.086 0.556-0.225l-0 0 0.926 0.465c0.108 0.054 0.238 0.029 0.318-0.061l1.969-2.216 1.936 1.451c0.104 0.078 0.249 0.069 0.343-0.020l1.683-1.594v4.066h-9.062v-6.13h9.062v1.33l-1.886 1.786-1.952-1.464c-0.044-0.033-0.1-0.053-0.16-0.053-0.079 0-0.15 0.034-0.199 0.089l-0 0-1.996 2.246-0.746-0.373c0.005-0.032 0.009-0.064 0.010-0.097 0-0.442-0.358-0.8-0.8-0.8v0zM4.264 7.749c0 0.147-0.119 0.267-0.267 0.267s-0.267-0.119-0.267-0.267v0c0-0.147 0.119-0.267 0.267-0.267s0.267 0.119 0.267 0.267v0zM5.864 12.013h2.665v0.267c0 0.147-0.119 0.267-0.266 0.267h-2.132c-0.147 0-0.267-0.119-0.267-0.267v0-0.267zM0.533 12.28c0-0.147 0.119-0.267 0.266-0.267h4.531v0.267c0 0.442 0.358 0.8 0.8 0.8v0h2.132c0.442 0 0.8-0.358 0.8-0.8v0-0.267h4.531c0.147 0 0.267 0.119 0.267 0.267v1.066c0 0.147-0.119 0.267-0.267 0.267h-12.793c-0 0-0 0-0 0-0.147 0-0.267-0.119-0.267-0.267 0 0 0 0 0 0v0-1.066z"></path>
</symbol>
<symbol id="astronaut" viewBox="0 0 16 16">
<path fill="#2196f3" style="fill: var(--color1, #2196f3)" d="M15.987 2.262c-0.032-0.095-0.114-0.166-0.214-0.181l-0.001-0-0.955-0.139-0.427-0.866c-0.089-0.182-0.389-0.182-0.478 0l-0.427 0.866-0.955 0.139c-0.13 0.019-0.229 0.13-0.229 0.264 0 0.075 0.031 0.142 0.080 0.191l0.692 0.674-0.163 0.951c-0.017 0.1 0.024 0.201 0.106 0.261 0.083 0.060 0.191 0.068 0.281 0.020l0.854-0.449 0.854 0.449c0.036 0.019 0.079 0.030 0.124 0.030 0.147 0 0.267-0.12 0.267-0.267 0-0.016-0.001-0.031-0.004-0.046l0 0.002-0.163-0.951 0.691-0.674c0.050-0.049 0.080-0.116 0.080-0.191 0-0.029-0.005-0.058-0.014-0.084l0.001 0.002zM14.756 2.926c-0.063 0.061-0.091 0.15-0.077 0.236l0.095 0.557-0.5-0.263c-0.036-0.019-0.079-0.031-0.124-0.031s-0.088 0.011-0.126 0.032l0.001-0.001-0.5 0.263 0.095-0.557c0.002-0.014 0.004-0.029 0.004-0.045 0-0.075-0.031-0.142-0.080-0.191l-0-0-0.405-0.395 0.56-0.081c0.087-0.013 0.162-0.067 0.201-0.146l0.25-0.507 0.25 0.507c0.039 0.079 0.114 0.133 0.201 0.146l0.56 0.081-0.405 0.395zM13.067 10.261h-0.533v0.533h0.533v-0.533zM13.067 11.328h-0.533v0.533h0.533v-0.533zM13.6 10.795h-0.533v0.533h0.533v-0.533zM12.533 10.795h-0.533v0.533h0.533v-0.533zM11.2 13.195h-0.533v0.533h0.533v-0.533zM11.2 14.261h-0.533v0.533h0.533v-0.533zM11.733 13.728h-0.533v0.533h0.533v-0.533zM10.667 13.728h-0.533v0.533h0.533v-0.533zM8 12.128h-0.533v0.533h0.533v-0.533zM8 13.195h-0.533v0.533h0.533v-0.533zM8.533 12.661h-0.533v0.533h0.533v-0.533zM7.467 12.661h-0.533v0.533h0.533v-0.533zM2.933 3.061h-0.533v0.533h0.533v-0.533zM2.933 4.128h-0.533v0.533h0.533v-0.533zM3.467 3.594h-0.533v0.533h0.533v-0.533zM2.4 3.594h-0.533v0.533h0.533v-0.533z"></path>
<path fill="#212121" style="fill: var(--color3, #212121)" d="M12.357 7.080c-0.14-0.188-0.349-0.318-0.589-0.352l-0.005-0.001c-0.038-0.006-0.082-0.009-0.127-0.009-0.205 0-0.394 0.070-0.545 0.187l0.002-0.002-0.627 0.48-0.949 0.709-0.679-0.271c1.211-0.543 2.057-1.754 2.057-3.16 0-1.912-1.561-3.467-3.48-3.467s-3.481 1.555-3.481 3.467c0 0.693 0.207 1.337 0.56 1.879l-1.384-0.012c-0.004 0-0.008 0.002-0.012 0.002-0.028 0.001-0.055 0.007-0.080 0.016l0.002-0.001c-0.006 0.002-0.013 0.004-0.019 0.007-0.003 0.001-0.006 0.002-0.010 0.003l-1.616 0.798c-0 0-0.001 0-0.001 0l-0.947 0.455c-0.012 0.005-0.023 0.011-0.032 0.018l0.001-0c-0.241 0.162-0.397 0.433-0.397 0.741 0 0.149 0.036 0.289 0.101 0.412l-0.002-0.005c0.11 0.212 0.296 0.371 0.522 0.443l0.006 0.002c0.080 0.026 0.173 0.042 0.269 0.042 0.154 0 0.299-0.039 0.425-0.108l-0.005 0.002 0.694-0.369 1.132-0.585 0.678-0.004-2.721 2.708c0 0-0 0-0.001 0.001l-0.669 0.667c-0.151 0.15-0.245 0.357-0.245 0.587 0 0.001 0 0.002 0 0.002v-0c0.001 0.46 0.374 0.832 0.834 0.832 0 0 0.001 0 0.001 0h-0c0.214 0 0.427-0.081 0.59-0.243l0.657-0.654 0.87-0.65 0.45 0.448-1.551 1.544c-0.151 0.15-0.245 0.357-0.245 0.587 0 0.001 0 0.001 0 0.002v-0c0 0.222 0.087 0.432 0.245 0.589 0.151 0.15 0.359 0.243 0.588 0.243 0.001 0 0.001 0 0.002 0h-0c0.214 0 0.427-0.081 0.59-0.243l2.244-2.236c0.003-0.003 0.008-0.004 0.011-0.008l2.583-2.829 1.736 0.247c0.013 0.002 0.025 0.003 0.038 0.003 0.032 0 0.063-0.008 0.094-0.019 0.009-0.003 0.016-0.008 0.025-0.012 0.010-0.005 0.020-0.008 0.029-0.014l1.607-1.067c0.006-0.004 0.009-0.011 0.015-0.015s0.014-0.007 0.020-0.013l0.635-0.595c0.174-0.163 0.282-0.394 0.282-0.65 0-0.2-0.066-0.385-0.177-0.533l0.002 0.002zM1.065 8.885c-0.049 0.027-0.108 0.043-0.17 0.043-0.039 0-0.077-0.006-0.112-0.018l0.003 0.001c-0.147-0.047-0.252-0.182-0.252-0.342 0-0.118 0.057-0.222 0.145-0.287l0.001-0.001 0.657-0.316 0.158 0.462 0.066 0.194-0.496 0.264zM2.814 7.971l-0.774 0.4-0.128-0.373-0.092-0.268 1.013-0.5-0.020 0.742zM10.363 4.661c0 0.459-0.11 0.892-0.299 1.28l-2.091-0.95c-0.022-0.288-0.171-0.536-0.391-0.692l-0.003-0.002 0.732-2.43c1.189 0.378 2.052 1.487 2.052 2.794zM4.469 4.661c0-1.617 1.322-2.933 2.947-2.933 0.126 0 0.25 0.011 0.373 0.026l-0.716 2.376c-0.010 0-0.019-0.003-0.029-0.003-0 0-0 0-0 0-0.516 0-0.934 0.418-0.936 0.933v0c0.002 0.516 0.42 0.933 0.936 0.933 0 0 0 0 0 0h-0c0.347 0 0.647-0.192 0.809-0.472l1.931 0.877c-0.538 0.723-1.397 1.195-2.368 1.195-1.625 0-2.947-1.316-2.947-2.933zM7.447 5.061c0 0.221-0.181 0.4-0.403 0.4-0 0-0 0-0.001 0-0.221 0-0.401-0.179-0.402-0.4v-0c0-0.221 0.181-0.4 0.403-0.4s0.403 0.179 0.403 0.4zM1.232 12.573c-0.055 0.054-0.131 0.088-0.214 0.088s-0.159-0.033-0.214-0.088l0 0c-0.054-0.054-0.088-0.129-0.088-0.211s0.034-0.157 0.088-0.211l0-0 0.481-0.479 0.426 0.424-0.479 0.477zM2.839 14.44c-0.055 0.054-0.131 0.088-0.214 0.088s-0.159-0.033-0.214-0.088l0 0c-0.054-0.054-0.088-0.129-0.088-0.211s0.034-0.157 0.088-0.211l0-0 0.481-0.48 0.426 0.424-0.48 0.478zM4.58 12.705l-0.001 0.001-0.882 0.88-0.426-0.424 0.883-0.878c0.020-0.020 0.032-0.044 0.045-0.068 0.003-0.007 0.010-0.013 0.013-0.020 0.008-0.021 0.010-0.043 0.013-0.064 0.002-0.012 0.007-0.024 0.007-0.037 0-0.018-0.006-0.035-0.010-0.053-0.003-0.016-0.003-0.032-0.009-0.048-0.012-0.026-0.028-0.049-0.046-0.069l0 0c-0.005-0.006-0.007-0.013-0.012-0.019h-0s0-0.001-0-0.001l-0.803-0.8c-0.008-0.008-0.019-0.012-0.029-0.019-0.013-0.010-0.027-0.020-0.042-0.028l-0.001-0.001c-0.013-0.006-0.029-0.012-0.045-0.016l-0.002-0c-0.015-0.005-0.033-0.008-0.051-0.010l-0.001-0c-0.003-0-0.007-0-0.011-0-0.013 0-0.025 0.001-0.038 0.003l0.001-0c-0.018 0.002-0.035 0.005-0.052 0.010s-0.032 0.014-0.047 0.022c-0.010 0.005-0.021 0.008-0.030 0.014l-0.887 0.662-0.45-0.449 1.2-1.193 2.18 2.144-0.464 0.459zM7.989 9.197c-0.008-0.001-0.015 0.002-0.023 0.001-0.004-0-0.009-0-0.013-0-0.016 0-0.031 0.001-0.046 0.004l0.002-0c-0.035 0.006-0.066 0.018-0.093 0.035l0.001-0.001c-0.015 0.009-0.028 0.019-0.041 0.031-0.006 0.005-0.014 0.008-0.020 0.015l-2.349 2.573-2.164-2.128 1.416-1.409c0.048-0.048 0.078-0.115 0.078-0.189 0-0.147-0.12-0.267-0.267-0.267-0 0-0.001 0-0.001 0h0l-1.109 0.006 0.014-0.804 1.552 0.013c0.632 0.648 1.514 1.051 2.489 1.051 0.001 0 0.001 0 0.002 0h-0c0.219 0 0.432-0.023 0.64-0.061 0.020 0.016 0.040 0.032 0.065 0.042l1.205 0.48 0.076 0.379 0.089 0.443-1.501-0.214zM10.010 9.286l-0.157-0.779 0.723-0.54 0.473 0.628-1.040 0.691zM11.887 7.871l-0.419 0.392-0.466-0.618 0.416-0.319c0.078-0.060 0.176-0.084 0.272-0.072 0.096 0.014 0.182 0.064 0.24 0.142 0.044 0.059 0.070 0.133 0.070 0.213 0 0.103-0.043 0.195-0.113 0.261l-0 0z"></path>
<path fill="#212121" style="fill: var(--color3, #212121)" d="M6.801 9.272l-1.072-1.067c-0.048-0.048-0.115-0.078-0.188-0.078s-0.14 0.030-0.188 0.078l-1.071 1.067c-0.048 0.048-0.078 0.115-0.078 0.189s0.030 0.141 0.078 0.189l-0-0 1.071 1.067c0.048 0.048 0.115 0.078 0.188 0.078s0.14-0.030 0.188-0.078v0l1.072-1.067c0.049-0.048 0.079-0.115 0.079-0.189s-0.030-0.141-0.079-0.189l-0-0zM5.542 10.152l-0.693-0.69 0.693-0.691 0.694 0.69-0.694 0.69zM8.582 2.535l-0.129 0.518c0.036 0.009 0.869 0.226 0.869 1.074h0.533c0-1.008-0.833-1.483-1.273-1.592zM9.856 4.661h-0.533v0.533h0.533v-0.533z"></path>
</symbol>
<symbol id="instagram" viewBox="0 0 16 16">
<path d="M15.984 4.704c-0.037-0.85-0.174-1.434-0.371-1.941-0.212-0.556-0.527-1.029-0.925-1.419l-0.001-0.001c-0.39-0.396-0.862-0.71-1.389-0.913l-0.027-0.009c-0.51-0.197-1.090-0.334-1.941-0.371-0.856-0.041-1.128-0.050-3.301-0.050s-2.444 0.010-3.298 0.047c-0.85 0.037-1.434 0.174-1.94 0.371-0.556 0.212-1.030 0.527-1.419 0.925l-0.001 0.001c-0.396 0.39-0.709 0.862-0.912 1.389l-0.009 0.027c-0.198 0.51-0.334 1.090-0.372 1.941-0.041 0.856-0.050 1.128-0.050 3.301s0.010 2.444 0.047 3.298c0.038 0.85 0.175 1.434 0.372 1.941 0.213 0.555 0.528 1.029 0.924 1.419l0.001 0.001c0.4 0.406 0.885 0.722 1.416 0.922 0.51 0.198 1.091 0.335 1.941 0.372 0.854 0.038 1.126 0.047 3.298 0.047s2.445-0.010 3.298-0.047c0.85-0.037 1.434-0.174 1.941-0.371 1.079-0.425 1.917-1.263 2.332-2.314l0.010-0.028c0.197-0.51 0.334-1.091 0.372-1.941 0.038-0.854 0.046-1.126 0.046-3.298s-0.003-2.444-0.040-3.298zM14.544 11.237c-0.035 0.782-0.166 1.203-0.275 1.485-0.276 0.7-0.82 1.243-1.502 1.512l-0.018 0.006c-0.28 0.11-0.706 0.241-1.484 0.275-0.844 0.038-1.097 0.047-3.232 0.047s-2.391-0.010-3.232-0.047c-0.782-0.034-1.203-0.166-1.485-0.275-0.36-0.135-0.667-0.338-0.918-0.596l-0.001-0.001c-0.258-0.252-0.462-0.558-0.592-0.901l-0.006-0.017c-0.109-0.282-0.24-0.706-0.274-1.485-0.038-0.844-0.047-1.098-0.047-3.232s0.010-2.392 0.047-3.232c0.034-0.782 0.166-1.203 0.274-1.485 0.134-0.361 0.339-0.668 0.599-0.918l0.001-0.001c0.252-0.258 0.559-0.462 0.903-0.591l0.017-0.006c0.28-0.11 0.706-0.24 1.484-0.275 0.844-0.037 1.098-0.046 3.232-0.046 2.138 0 2.391 0.010 3.232 0.046 0.782 0.034 1.203 0.166 1.485 0.275 0.346 0.128 0.662 0.331 0.918 0.597 0.266 0.26 0.469 0.572 0.598 0.92 0.109 0.28 0.24 0.706 0.274 1.484 0.038 0.844 0.047 1.097 0.047 3.232s-0.010 2.384-0.047 3.229z"></path>
<path d="M8.030 3.891c-2.27 0.001-4.109 1.841-4.11 4.11v0c0.046 2.235 1.868 4.030 4.11 4.030s4.065-1.795 4.11-4.026l0-0.004c-0-2.27-1.84-4.11-4.11-4.11h-0zM8.030 10.667c-1.472-0-2.666-1.194-2.666-2.666s1.194-2.666 2.666-2.666c0 0 0 0 0 0h-0c1.473 0 2.667 1.194 2.667 2.667s-1.194 2.667-2.667 2.667v0zM13.262 3.729c0 0.53-0.43 0.96-0.96 0.96s-0.96-0.43-0.96-0.96v0c0-0.53 0.43-0.96 0.96-0.96s0.96 0.43 0.96 0.96v0z"></path>
</symbol>
<symbol id="twitter" viewBox="0 0 16 16">
<path d="M16 3.039c-0.55 0.247-1.188 0.429-1.856 0.514l-0.034 0.004c0.68-0.408 1.191-1.039 1.437-1.79l0.007-0.023c-0.599 0.361-1.296 0.637-2.038 0.787l-0.042 0.007c-0.6-0.639-1.45-1.038-2.394-1.038-1.811 0-3.279 1.468-3.279 3.279 0 0.001 0 0.001 0 0.002v-0c0 0.26 0.022 0.51 0.076 0.748-2.727-0.133-5.14-1.44-6.761-3.43-0.282 0.475-0.449 1.046-0.451 1.656v0.001c0 1.136 0.586 2.143 1.457 2.726-0.546-0.015-1.054-0.163-1.497-0.412l0.016 0.008v0.036c0.001 1.582 1.118 2.904 2.606 3.22l0.022 0.004c-0.249 0.068-0.536 0.107-0.831 0.107-0.010 0-0.020-0-0.030-0l0.002 0c-0.21 0-0.422-0.012-0.621-0.056 0.425 1.299 1.63 2.254 3.065 2.285-1.107 0.873-2.523 1.4-4.061 1.4-0.002 0-0.004 0-0.006 0h0c-0.009 0-0.020 0-0.031 0-0.266 0-0.527-0.017-0.784-0.050l0.030 0.003c1.413 0.923 3.143 1.472 5.002 1.472 0.011 0 0.021-0 0.032-0h-0.002c6.036 0 9.336-5 9.336-9.334 0-0.144-0.005-0.285-0.012-0.424 0.649-0.468 1.195-1.032 1.629-1.677l0.015-0.023z"></path>
</symbol>
<symbol id="facebook" viewBox="0 0 16 16">
<path d="M10.664 2.656h1.462v-2.544c-0.616-0.071-1.33-0.112-2.054-0.112-0.026 0-0.052 0-0.078 0l0.004-0c-2.106 0-3.55 1.325-3.55 3.76v2.24h-2.323v2.844h2.323v7.156h2.85v-7.155h2.23l0.354-2.844h-2.585v-1.961c0-0.822 0.222-1.384 1.367-1.384z"></path>
</symbol>
<symbol id="linkedin" viewBox="0 0 16 16">
<path d="M15.996 16h0.004v-5.869c0-2.87-0.618-5.082-3.974-5.082-1.614 0-2.696 0.885-3.138 1.725h-0.046v-1.457h-3.182v10.682h3.314v-5.289c0-1.393 0.264-2.74 1.989-2.74 1.699 0 1.725 1.59 1.725 2.829v5.201h3.31zM0.264 5.318h3.318v10.682h-3.318v-10.682zM1.922 0c-1.061 0-1.922 0.86-1.922 1.922v0c0 1.060 0.861 1.939 1.922 1.939s1.921-0.878 1.921-1.939c-0-1.061-0.86-1.921-1.921-1.922h-0z"></path>
</symbol>
<symbol id="client1" viewBox="0 0 14 16">
<path d="M2.043 0l2.386 2.258-4.428-0.003v10.958h11.574v-4.19l2.383 2.256v-11.28h-11.915zM11.47 8.758l-6.764-6.403h6.764v6.403zM9.37 11.61h-7.538v-7.369h0.533v6.87h7.005v0.499zM3.612 14.672l-0.278 0.574-0.278-0.574h-0.234l0.406 0.765v0.446h0.211v-0.446l0.405-0.765h-0.233zM3.962 15.883l0.098-0.282h0.469l0.099 0.282h0.22l-0.458-1.21h-0.189l-0.457 1.21h0.219zM4.294 14.929l0.175 0.502h-0.351l0.175-0.502zM5.403 15.402c-0.029 0.043-0.046 0.095-0.046 0.152 0 0.001 0 0.001 0 0.002v-0c0 0.102 0.036 0.185 0.107 0.249s0.168 0.095 0.288 0.095c0.119 0 0.223-0.033 0.309-0.097l0.068 0.081h0.234l-0.178-0.21c0.070-0.095 0.105-0.218 0.105-0.367h-0.175c0 0.082-0.017 0.156-0.050 0.222l-0.234-0.276 0.082-0.060c0.050-0.034 0.092-0.076 0.125-0.125l0.001-0.002c0.024-0.039 0.038-0.087 0.038-0.138 0-0.001 0-0.001-0-0.002v0c0-0.001 0-0.003 0-0.005 0-0.075-0.033-0.141-0.085-0.187l-0-0c-0.054-0.049-0.125-0.079-0.204-0.079-0.004 0-0.008 0-0.013 0l0.001-0c-0.097 0-0.175 0.028-0.233 0.083s-0.086 0.13-0.086 0.225c0 0.039 0.009 0.079 0.027 0.121 0.019 0.042 0.052 0.092 0.099 0.151-0.090 0.064-0.15 0.12-0.18 0.167zM5.949 15.67c-0.052 0.042-0.118 0.068-0.191 0.068h-0c-0.003 0-0.006 0-0.010 0-0.052 0-0.1-0.020-0.135-0.053l0 0c-0.034-0.033-0.054-0.079-0.054-0.129 0-0.002 0-0.005 0-0.007l-0 0c0-0.065 0.033-0.123 0.1-0.173l0.026-0.018 0.264 0.312zM5.732 15.134c-0.057-0.070-0.086-0.129-0.086-0.175 0-0.041 0.012-0.074 0.035-0.1 0.022-0.025 0.054-0.040 0.089-0.040 0.002 0 0.003 0 0.005 0l-0-0c0.001-0 0.003-0 0.004-0 0.033 0 0.064 0.013 0.086 0.034l-0-0c0.024 0.022 0.036 0.049 0.036 0.081 0 0.001 0 0.003 0 0.004 0 0.045-0.020 0.085-0.051 0.113l-0 0-0.026 0.020-0.092 0.063zM7.702 15.791c0.083-0.073 0.131-0.174 0.143-0.302h-0.209c-0.011 0.086-0.037 0.148-0.079 0.185s-0.104 0.056-0.186 0.056c-0.090 0-0.159-0.034-0.206-0.103s-0.070-0.169-0.070-0.3v-0.107c0.001-0.129 0.026-0.227 0.075-0.293s0.12-0.1 0.211-0.1c0.079 0 0.138 0.019 0.179 0.058s0.066 0.101 0.077 0.188h0.209c-0.014-0.132-0.061-0.235-0.142-0.307s-0.189-0.109-0.322-0.109c-0.099 0-0.187 0.024-0.262 0.071-0.076 0.049-0.136 0.117-0.172 0.198l-0.001 0.003c-0.039 0.085-0.061 0.184-0.061 0.288 0 0.005 0 0.010 0 0.015l-0-0.001v0.113c0.002 0.111 0.022 0.209 0.062 0.293s0.097 0.149 0.17 0.195c0.074 0.046 0.159 0.068 0.255 0.068 0.138 0 0.249-0.036 0.332-0.108zM8.938 15.621c0.041-0.090 0.062-0.194 0.062-0.313v-0.067c0-0.004 0-0.008 0-0.012 0-0.108-0.023-0.21-0.065-0.303l0.002 0.005c-0.038-0.085-0.099-0.155-0.175-0.203l-0.002-0.001c-0.076-0.048-0.163-0.071-0.262-0.071s-0.186 0.024-0.262 0.072c-0.076 0.048-0.135 0.116-0.177 0.207-0.039 0.088-0.062 0.19-0.062 0.298 0 0.005 0 0.011 0 0.016l-0-0.001v0.068c0.001 0.116 0.021 0.218 0.063 0.306s0.101 0.157 0.178 0.206c0.077 0.048 0.164 0.071 0.262 0.071 0.099 0 0.187-0.024 0.263-0.071s0.135-0.117 0.176-0.206zM8.713 14.937c0.051 0.071 0.076 0.175 0.076 0.309v0.063c0 0.136-0.025 0.24-0.076 0.311s-0.121 0.107-0.214 0.107c-0.003 0-0.006 0-0.009 0-0.086 0-0.161-0.043-0.207-0.108l-0.001-0.001c-0.052-0.073-0.077-0.175-0.077-0.308v-0.070c0.001-0.13 0.027-0.231 0.078-0.302 0.046-0.065 0.12-0.107 0.205-0.107 0.003 0 0.006 0 0.009 0l-0-0c0.093 0 0.165 0.036 0.215 0.107z"></path>
</symbol>
<symbol id="client2" viewBox="0 0 12 16">
<path  d="M5.266 0.903h-0.042c-0.065-0.004-0.129-0.006-0.194-0.007h-0.14c-0.122 0-0.247 0.003-0.37 0.009-0.004-0-0.009-0.001-0.014-0.001s-0.010 0-0.015 0.001l0.001-0c-1.188 0.069-2.291 0.366-3.288 0.848l0.052-0.023-0.133 0.064v6.813l0.311-0.106c0.273-0.094 0.564-0.178 0.866-0.257 0.744-0.199 1.601-0.319 2.484-0.331l0.007-0v0.895c-0.111 0.001-0.219 0.004-0.328 0.009h-0.026c-0.699 0.039-1.355 0.144-1.986 0.31l0.069-0.015c-0.867 0.22-1.627 0.525-2.333 0.915l0.050-0.025v-8.738c0.69-0.41 1.487-0.744 2.332-0.96l0.063-0.014c0.676-0.182 1.454-0.288 2.255-0.291h0.133c0.157 0.004 0.311 0.011 0.455 0.022 0.415 0.030 0.799 0.094 1.17 0.189l-0.045-0.010v0.881c-0.314-0.077-0.686-0.135-1.067-0.163l-0.023-0.001-0.022-0.002c-0.076-0.006-0.152-0.013-0.223-0.013zM6.816 1.803c0.195 0.015 0.398 0.022 0.602 0.022 0.845-0.003 1.662-0.114 2.441-0.32l-0.068 0.015c0.867-0.221 1.626-0.526 2.332-0.916l-0.050 0.025v8.582c-0.69 0.41-1.487 0.744-2.332 0.96l-0.064 0.014c-0.677 0.181-1.454 0.287-2.255 0.29h-0.002c-0.016 0-0.036 0-0.055 0-0.588 0-1.159-0.074-1.705-0.212l0.048 0.010v-8.638c0.132 0.031 0.269 0.059 0.407 0.082 0.227 0.038 0.467 0.066 0.701 0.084zM11.184 1.87l-0.311 0.105c-0.286 0.096-0.575 0.182-0.866 0.259-0.775 0.208-1.666 0.328-2.584 0.332h-0.002c-0.203 0-0.39-0.006-0.57-0.017l-0.248-0.016v7.008l0.213 0.018c0.198 0.018 0.402 0.026 0.607 0.026 0.725-0.003 1.427-0.099 2.095-0.277l-0.058 0.013c0.611-0.155 1.14-0.351 1.643-0.595l-0.051 0.022 0.133-0.064v-6.815z"></path>
<path  d="M0.842 12.988c-0.084-0.087-0.201-0.14-0.33-0.14-0.006 0-0.011 0-0.017 0l0.001-0c-0.002-0-0.004-0-0.007-0-0.070 0-0.136 0.014-0.197 0.039l0.003-0.001c-0.118 0.047-0.21 0.14-0.255 0.256l-0.001 0.003c-0.025 0.062-0.037 0.127-0.036 0.193v1.167c-0.003 0.082 0.013 0.164 0.046 0.239 0.028 0.060 0.067 0.113 0.117 0.157 0.046 0.039 0.101 0.068 0.16 0.083 0.057 0.016 0.116 0.024 0.174 0.024 0.065 0.001 0.129-0.013 0.188-0.041 0.175-0.078 0.295-0.25 0.295-0.451v-0.13h-0.306v0.104c0 0.002 0 0.005 0 0.007 0 0.035-0.007 0.068-0.019 0.099l0.001-0.002c-0.010 0.026-0.025 0.048-0.044 0.066l-0 0c-0.035 0.027-0.079 0.044-0.128 0.045h-0c-0.005 0.001-0.012 0.001-0.018 0.001-0.051 0-0.097-0.025-0.125-0.063l-0-0c-0.026-0.041-0.041-0.091-0.041-0.145 0-0.004 0-0.008 0-0.012l-0 0.001v-1.089c-0.002-0.060 0.011-0.12 0.038-0.174 0.028-0.043 0.076-0.072 0.131-0.072 0.006 0 0.013 0 0.019 0.001l-0.001-0c0.002-0 0.004-0 0.006-0 0.053 0 0.101 0.026 0.13 0.066l0 0c0.032 0.041 0.051 0.093 0.051 0.15 0 0.002-0 0.005-0 0.007v-0 0.101h0.302v-0.119c0-0.002 0-0.003 0-0.005 0-0.072-0.014-0.14-0.039-0.203l0.001 0.004c-0.024-0.064-0.059-0.118-0.102-0.165l0 0zM2.655 12.975c-0.093-0.079-0.214-0.128-0.347-0.129h-0c-0.062 0-0.124 0.011-0.182 0.033-0.126 0.045-0.225 0.138-0.278 0.256l-0.001 0.003c-0.031 0.071-0.046 0.148-0.045 0.226v1.119c-0.002 0.079 0.013 0.157 0.045 0.229 0.028 0.060 0.068 0.114 0.118 0.157 0.047 0.043 0.102 0.077 0.161 0.098 0.058 0.022 0.12 0.033 0.182 0.033 0.133-0 0.255-0.050 0.348-0.132l-0.001 0.001c0.049-0.044 0.088-0.097 0.115-0.157 0.031-0.072 0.046-0.15 0.045-0.229v-1.12c0-0.003 0-0.006 0-0.010 0-0.078-0.016-0.152-0.046-0.22l0.001 0.003c-0.028-0.064-0.067-0.118-0.115-0.163l-0-0zM2.513 14.484c0 0.005 0.001 0.011 0.001 0.017 0 0.057-0.023 0.108-0.061 0.145l-0 0c-0.039 0.033-0.089 0.052-0.144 0.052s-0.105-0.020-0.144-0.053l0 0c-0.038-0.037-0.061-0.088-0.061-0.144 0-0.006 0-0.012 0.001-0.018l-0 0.001v-1.12c-0-0.005-0.001-0.011-0.001-0.017 0-0.057 0.023-0.108 0.061-0.145l0-0c0.039-0.033 0.089-0.052 0.144-0.052s0.105 0.020 0.144 0.053l-0-0c0.038 0.037 0.061 0.088 0.061 0.144 0 0.006-0 0.012-0.001 0.018l0-0.001v1.12zM5.036 14.985v-2.12h-0.293l-0.386 1.122h-0.005l-0.389-1.122h-0.29v2.119h0.303v-1.289h0.006l0.296 0.911h0.151l0.299-0.911h0.005v1.289h0.303zM6.756 13.014c-0.046-0.052-0.106-0.092-0.171-0.116-0.062-0.021-0.134-0.033-0.208-0.033-0.004 0-0.008 0-0.012 0l0.001-0h-0.45v2.12h0.302v-0.828h0.155c0.094 0.004 0.188-0.016 0.273-0.058 0.069-0.039 0.125-0.094 0.165-0.16l0.001-0.002c0.035-0.056 0.058-0.119 0.069-0.185 0.010-0.067 0.016-0.144 0.016-0.222 0-0.007-0-0.013-0-0.020l0 0.001c0.003-0.102-0.007-0.204-0.030-0.303-0.021-0.076-0.060-0.142-0.111-0.195l0 0zM6.601 13.66c-0.001 0.040-0.012 0.078-0.029 0.112l0.001-0.002c-0.018 0.033-0.044 0.058-0.077 0.074l-0.001 0c-0.037 0.017-0.081 0.027-0.127 0.027-0.005 0-0.011-0-0.016-0l0.001 0h-0.138v-0.721h0.156c0.004-0 0.009-0 0.015-0 0.044 0 0.086 0.010 0.124 0.028l-0.002-0.001c0.031 0.018 0.056 0.045 0.070 0.077l0 0.001c0.017 0.037 0.026 0.078 0.026 0.118v0.141c0 0.049 0.003 0.1 0 0.146h-0.003zM8.187 12.865h-0.248l-0.467 2.12h0.302l0.089-0.455h0.412l0.089 0.455h0.302l-0.479-2.12zM7.908 14.24l0.149-0.768h0.006l0.148 0.768h-0.302zM10.138 14.142h-0.006l-0.456-1.277h-0.29v2.12h0.302v-1.275h0.006l0.462 1.274h0.284v-2.119h-0.302v1.277zM11.984 12.865l-0.243 0.843h-0.006l-0.243-0.843h-0.319l0.415 1.224v0.896h0.302v-0.896l0.415-1.224h-0.32zM0 15.583h0.146v0.408h0.099v-0.409h0.145v-0.084h-0.389v0.084zM1.224 15.499l-0.191 0.492h0.105l0.041-0.112h0.196l0.042 0.112h0.108l-0.196-0.492h-0.105zM1.208 15.797l0.067-0.182 0.067 0.182h-0.134zM2.433 15.81h0.114v0.063c-0.032 0.026-0.072 0.041-0.117 0.042h-0c-0.002 0-0.005 0-0.007 0-0.039 0-0.075-0.018-0.097-0.047l-0-0c-0.023-0.033-0.037-0.073-0.037-0.117 0-0.004 0-0.008 0-0.012l-0 0.001c0-0.11 0.047-0.164 0.142-0.164 0.003-0 0.007-0.001 0.011-0.001 0.049 0 0.089 0.033 0.101 0.078l0 0.001 0.097-0.019c-0.021-0.096-0.090-0.145-0.209-0.145-0.002-0-0.004-0-0.007-0-0.064 0-0.122 0.024-0.166 0.064l0-0c-0.044 0.044-0.071 0.104-0.071 0.171 0 0.006 0 0.013 0.001 0.019l-0-0.001c-0 0.003-0 0.007-0 0.011 0 0.066 0.024 0.127 0.064 0.174l-0-0c0.043 0.045 0.104 0.073 0.172 0.073 0.005 0 0.011-0 0.016-0.001l-0.001 0c0.002 0 0.005 0 0.008 0 0.078 0 0.148-0.030 0.201-0.079l-0 0v-0.194h-0.213v0.083zM3.669 15.499h-0.1v0.492h0.345v-0.084h-0.245v-0.409zM4.713 15.499h-0.1v0.492h0.1v-0.492zM5.734 15.828l-0.202-0.329h-0.096v0.492h0.092v-0.322l0.198 0.322h0.099v-0.492h-0.091v0.329zM6.658 15.774h0.245v-0.084h-0.245v-0.108h0.264v-0.084h-0.363v0.492h0.374v-0.084h-0.274v-0.133zM8.896 15.693h-0.194v-0.194h-0.098v0.492h0.098v-0.215h0.194v0.215h0.099v-0.492h-0.099v0.194zM9.825 15.774h0.246v-0.084h-0.246v-0.108h0.265v-0.084h-0.363v0.492h0.373v-0.084h-0.274v-0.133zM11.084 15.775c0.086-0.014 0.129-0.059 0.129-0.137 0.001-0.004 0.001-0.009 0.001-0.014 0-0.039-0.019-0.074-0.049-0.095l-0-0c-0.036-0.019-0.079-0.030-0.125-0.030-0.007 0-0.013 0-0.020 0.001l0.001-0h-0.209v0.492h0.099v-0.206h0.019c0.002-0 0.005-0 0.008-0 0.019 0 0.038 0.004 0.054 0.012l-0.001-0c0.014 0.009 0.026 0.021 0.035 0.036l0.107 0.156h0.118l-0.060-0.096c-0.027-0.048-0.064-0.088-0.108-0.117l-0.001-0.001zM10.984 15.706h-0.073v-0.123h0.078c0.006-0.001 0.013-0.001 0.021-0.001 0.028 0 0.056 0.005 0.081 0.013l-0.002-0.001c0.013 0.012 0.021 0.029 0.021 0.048 0 0.021-0.010 0.040-0.026 0.052l-0 0c-0.025 0.008-0.053 0.012-0.082 0.012-0.006 0-0.013-0-0.019-0.001l0.001 0zM12.034 15.774h0.245v-0.084h-0.245v-0.108h0.265v-0.084h-0.364v0.492h0.374v-0.084h-0.274v-0.133z"></path>
</symbol>
<symbol id="client3" viewBox="0 0 17 16">
<path  d="M2.821 15.658c0.006 0 0.012 0.002 0.018 0.004s0.011 0.005 0.015 0.009l-0-0 0.083 0.079c-0.065 0.064-0.144 0.116-0.234 0.151-0.092 0.034-0.199 0.054-0.31 0.054-0.008 0-0.015-0-0.023-0l0.001 0c-0.107 0.002-0.213-0.015-0.311-0.051-0.091-0.033-0.169-0.082-0.235-0.143l0 0c-0.064-0.061-0.116-0.134-0.15-0.216l-0.002-0.004c-0.034-0.081-0.053-0.175-0.053-0.274 0-0.003 0-0.006 0-0.009v0c-0-0.004-0-0.009-0-0.015 0-0.194 0.084-0.368 0.218-0.489l0.001-0.001c0.071-0.062 0.156-0.111 0.249-0.144 0.102-0.034 0.211-0.051 0.321-0.050 0.006-0 0.013-0 0.020-0 0.1 0 0.195 0.017 0.284 0.048l-0.006-0.002c0.082 0.031 0.158 0.074 0.224 0.128l-0.070 0.085c-0.005 0.006-0.011 0.011-0.018 0.015l-0 0c-0.007 0.004-0.015 0.007-0.024 0.007-0.001 0-0.003-0-0.004-0l0 0c-0.011-0.001-0.022-0.004-0.031-0.009l0 0-0.037-0.023-0.052-0.029c-0.047-0.023-0.103-0.041-0.16-0.050l-0.003-0c-0.034-0.006-0.074-0.009-0.115-0.009-0.003 0-0.006 0-0.010 0h0c-0.002-0-0.005-0-0.008-0-0.080 0-0.157 0.014-0.228 0.040l0.005-0.001c-0.070 0.025-0.13 0.061-0.181 0.107l0-0c-0.052 0.049-0.091 0.107-0.117 0.17s-0.042 0.138-0.042 0.216c0 0.003 0 0.005 0 0.008v-0c-0 0.003-0 0.006-0 0.009 0 0.079 0.016 0.154 0.044 0.222l-0.001-0.004c0.026 0.062 0.065 0.12 0.115 0.169 0.048 0.046 0.107 0.082 0.173 0.105 0.068 0.024 0.141 0.037 0.214 0.036 0.042 0 0.085-0.002 0.127-0.007 0.106-0.011 0.2-0.053 0.275-0.117l-0.001 0.001c0.011-0.009 0.024-0.014 0.039-0.014h0zM5.221 15.259c0 0.003 0 0.005 0 0.008 0 0.098-0.021 0.192-0.058 0.277l0.002-0.004c-0.037 0.086-0.090 0.159-0.156 0.217l-0.001 0.001c-0.069 0.061-0.151 0.11-0.241 0.141l-0.005 0.002c-0.094 0.032-0.203 0.051-0.316 0.051s-0.222-0.018-0.323-0.053l0.007 0.002c-0.094-0.034-0.175-0.082-0.245-0.144l0.001 0.001c-0.067-0.060-0.12-0.134-0.156-0.216l-0.002-0.004c-0.035-0.083-0.056-0.18-0.056-0.281s0.021-0.198 0.058-0.286l-0.002 0.005c0.035-0.082 0.089-0.157 0.158-0.221 0.069-0.061 0.152-0.107 0.244-0.138 0.094-0.033 0.203-0.051 0.316-0.051s0.222 0.019 0.323 0.054l-0.007-0.002c0.092 0.032 0.176 0.081 0.245 0.143s0.122 0.137 0.157 0.218c0.038 0.091 0.058 0.186 0.056 0.283zM5.003 15.259c0-0.004 0-0.008 0-0.012 0-0.077-0.015-0.151-0.041-0.218l0.001 0.004c-0.051-0.13-0.154-0.23-0.283-0.274l-0.003-0.001c-0.069-0.023-0.147-0.037-0.23-0.037s-0.161 0.014-0.235 0.039l0.005-0.002c-0.068 0.024-0.127 0.061-0.176 0.107l0-0c-0.049 0.046-0.087 0.102-0.111 0.166l-0.001 0.003c-0.025 0.067-0.040 0.145-0.040 0.226s0.015 0.158 0.041 0.23l-0.001-0.005c0.050 0.13 0.155 0.23 0.285 0.273l0.003 0.001c0.148 0.048 0.311 0.048 0.459 0 0.067-0.023 0.126-0.059 0.175-0.106 0.050-0.049 0.088-0.107 0.111-0.169 0.028-0.072 0.041-0.149 0.040-0.226zM6.858 15.495l0.022 0.050c0.008-0.018 0.016-0.034 0.024-0.050 0.009-0.020 0.018-0.036 0.028-0.051l-0.001 0.002 0.531-0.838c0.011-0.014 0.020-0.024 0.030-0.026s0.023-0.005 0.036-0.005c0.002 0 0.005 0 0.007 0l-0-0h0.157v1.364h-0.186v-1.045c-0-0.007-0.001-0.015-0.001-0.024s0-0.017 0.001-0.025l-0 0.001-0.534 0.85c-0.007 0.013-0.018 0.024-0.031 0.031l-0 0c-0.013 0.007-0.028 0.011-0.045 0.011-0 0-0.001 0-0.001 0h-0.030c-0 0-0.001 0-0.001 0-0.016 0-0.032-0.004-0.045-0.012l0 0c-0.013-0.007-0.024-0.018-0.031-0.030l-0-0-0.55-0.856v1.094h-0.179v-1.361h0.157c0.002-0 0.005-0 0.007-0 0.013 0 0.026 0.002 0.037 0.005l-0.001-0c0.013 0.006 0.023 0.015 0.029 0.026l0.542 0.839c0.010 0.014 0.019 0.030 0.026 0.047l0.001 0.002zM8.855 15.427v0.51h-0.207v-1.362h0.463c0.088-0.002 0.174 0.009 0.259 0.030 0.067 0.017 0.13 0.046 0.183 0.085 0.044 0.035 0.079 0.080 0.103 0.131l0.001 0.002c0.025 0.056 0.037 0.115 0.035 0.174 0 0.002 0 0.005 0 0.008 0 0.123-0.059 0.232-0.15 0.301l-0.001 0.001c-0.053 0.041-0.116 0.072-0.184 0.090-0.070 0.020-0.151 0.032-0.234 0.032-0.006 0-0.012-0-0.017-0l-0.251-0.004zM8.855 15.281h0.251c0.054 0.001 0.109-0.006 0.161-0.021 0.044-0.013 0.083-0.033 0.117-0.059l-0.001 0.001c0.058-0.048 0.095-0.121 0.095-0.202 0-0.001 0-0.002-0-0.003v0c0-0.004 0-0.009 0-0.015 0-0.035-0.008-0.068-0.022-0.098l0.001 0.001c-0.017-0.037-0.042-0.068-0.072-0.093l-0-0c-0.069-0.047-0.155-0.074-0.247-0.074-0.012 0-0.023 0-0.034 0.001l0.002-0h-0.251v0.561zM11.647 15.94h-0.164c-0.001 0-0.002 0-0.003 0-0.016 0-0.031-0.005-0.043-0.013l0 0c-0.012-0.008-0.021-0.019-0.027-0.031l-0-0-0.141-0.329h-0.71l-0.146 0.329c-0.013 0.026-0.040 0.044-0.070 0.044-0.001 0-0.001-0-0.002-0h-0.164l0.623-1.364h0.216l0.632 1.364zM10.618 15.434h0.586l-0.247-0.555c-0.019-0.042-0.034-0.085-0.047-0.128l-0.024 0.071c-0.007 0.022-0.015 0.042-0.023 0.058l-0.245 0.554zM12.544 14.583c0.012 0.006 0.023 0.014 0.031 0.024l0.909 1.028v-1.059h0.186v1.364h-0.104c-0.001 0-0.002 0-0.002 0-0.015 0-0.028-0.003-0.041-0.009l0.001 0c-0.013-0.007-0.024-0.015-0.033-0.025l-0-0-0.908-1.027c0 0.007 0.001 0.015 0.001 0.023s-0 0.016-0.001 0.025l0-0.001v1.013h-0.186v-1.364h0.11c0.013 0 0.026 0.002 0.037 0.006zM15.201 15.398v0.541h-0.208v-0.541l-0.574-0.821h0.186c0.001-0 0.003-0 0.005-0 0.015 0 0.029 0.004 0.040 0.012l-0-0c0.011 0.009 0.021 0.019 0.028 0.031l0.359 0.53c0.014 0.023 0.027 0.043 0.037 0.063s0.019 0.039 0.026 0.058l0.027-0.059c0.010-0.021 0.022-0.042 0.035-0.062l0.354-0.533c0.008-0.011 0.017-0.021 0.026-0.029l0-0c0.011-0.008 0.026-0.013 0.041-0.013 0.001 0 0.003 0 0.004 0l-0-0h0.188l-0.575 0.825zM6.755 12.288c0.090 0.010 0.182 0.018 0.274 0.025 1.402-0.545 2.587-1.436 3.409-2.563s1.242-2.439 1.21-3.773l-1.545-1.342c0.314 1.42 0.168 2.888-0.424 4.239s-1.604 2.533-2.925 3.413z"></path>
<path  d="M6.203 12.226l0.042 0.008c1.411-0.877 2.486-2.102 3.088-3.515s0.701-2.952 0.286-4.415l-2.2-1.911c0.89 1.571 1.248 3.33 1.032 5.070s-0.994 3.393-2.248 4.764zM13.664 7.553c-0.374 1.466-1.282 2.787-2.589 3.769-0.357 0.272-0.759 0.526-1.184 0.745l-0.046 0.022c1.064-0.272 2.042-0.752 2.859-1.404s1.45-1.459 1.851-2.357l-0.892-0.774z"></path>
<path  d="M13.314 7.337l-1.27-1.104c-0.024 1.258-0.436 2.488-1.192 3.561s-1.83 1.951-3.109 2.542h0.006c0.285 0 0.57-0.015 0.853-0.044 1.195-0.424 2.251-1.098 3.073-1.963s1.386-1.893 1.639-2.992zM6.387 1.585l-1.515-1.318c-1.355 0.455-2.52 1.254-3.343 2.294s-1.266 2.271-1.27 3.533c0.005 1.394 0.545 2.747 1.535 3.845s2.372 1.877 3.929 2.215c1.39-1.471 2.203-3.289 2.323-5.19s-0.462-3.785-1.659-5.379zM16.815 7.134c-0.005-1.654-0.764-3.239-2.11-4.409s-3.171-1.829-5.075-1.834c-0.004 0-0.009-0-0.014-0-0.915 0-1.795 0.152-2.615 0.433l0.057-0.017 9.278 8.061c0.302-0.657 0.479-1.425 0.48-2.234v-0z"></path>
</symbol>
<symbol id="client4" viewBox="0 0 32 16">
<path  d="M5.008 4.992h-0.001c-0.914 0-1.654 0.658-1.654 1.47v0.001c0 0.812 0.741 1.47 1.654 1.47h0.001c0.914 0 1.654-0.658 1.654-1.47v-0.001c0-0.812-0.741-1.47-1.654-1.47zM17.217 4.522c-0.003-1.128-0.508-2.209-1.405-3.006s-2.113-1.246-3.382-1.249c-1.269 0.002-2.486 0.451-3.384 1.248s-1.403 1.878-1.406 3.006v6.218s9.575-0.948 9.576-6.217v-0.001zM0 12.781c0.002 0.785 0.354 1.536 0.978 2.091s1.47 0.867 2.353 0.87c0.883-0.002 1.728-0.315 2.353-0.87s0.976-1.306 0.978-2.091v-4.327s-6.662 0.66-6.662 4.326zM3.331 13.556c-0.173 0-0.341-0.045-0.485-0.131-0.14-0.082-0.25-0.201-0.319-0.343l-0.002-0.005c-0.042-0.087-0.066-0.189-0.066-0.296 0-0.054 0.006-0.106 0.018-0.156l-0.001 0.005c0.034-0.15 0.117-0.289 0.238-0.397 0.122-0.107 0.273-0.182 0.441-0.211l0.005-0.001c0.051-0.010 0.11-0.015 0.171-0.015 0.12 0 0.234 0.022 0.34 0.061l-0.007-0.002c0.16 0.059 0.296 0.158 0.392 0.286s0.147 0.277 0.147 0.43c0 0.102-0.022 0.203-0.066 0.298-0.047 0.099-0.111 0.183-0.188 0.251l-0.001 0.001c-0.081 0.072-0.177 0.13-0.283 0.169-0.099 0.038-0.214 0.059-0.334 0.059-0 0-0 0-0.001 0h0v-0.003zM10.064 13.129h-0.643v0.664h-0.335v-1.626h1.058v0.271h-0.723v0.42h0.643v0.27zM11.673 13.018c0 0.16-0.028 0.3-0.085 0.421s-0.138 0.213-0.244 0.279c-0.099 0.062-0.22 0.098-0.349 0.098-0.004 0-0.008-0-0.013-0l0.001 0c-0.135 0-0.255-0.032-0.361-0.097-0.107-0.067-0.191-0.161-0.244-0.273l-0.002-0.004c-0.056-0.118-0.088-0.256-0.088-0.402 0-0.005 0-0.009 0-0.014l-0 0.001v-0.080c0-0.16 0.029-0.301 0.086-0.422s0.139-0.216 0.245-0.28c0.106-0.066 0.226-0.098 0.362-0.098s0.255 0.033 0.36 0.098c0.106 0.065 0.187 0.158 0.245 0.28s0.087 0.261 0.087 0.421v0.072zM11.334 12.944c0-0.17-0.030-0.3-0.091-0.389-0.054-0.081-0.145-0.133-0.248-0.133-0.005 0-0.009 0-0.014 0l0.001-0c-0.004-0-0.008-0-0.013-0-0.103 0-0.193 0.052-0.247 0.131l-0.001 0.001c-0.061 0.087-0.092 0.215-0.093 0.384v0.079c0 0.166 0.030 0.294 0.091 0.386s0.149 0.137 0.264 0.137c0.004 0 0.009 0 0.013 0 0.102 0 0.192-0.052 0.245-0.131l0.001-0.001c0.060-0.088 0.091-0.217 0.091-0.386v-0.079zM12.759 13.366c0-0.003 0-0.006 0-0.009 0-0.055-0.026-0.104-0.067-0.135l-0-0c-0.045-0.034-0.125-0.070-0.241-0.107-0.107-0.033-0.198-0.071-0.285-0.116l0.010 0.005c-0.185-0.1-0.277-0.234-0.277-0.403 0-0.088 0.024-0.166 0.074-0.234 0.050-0.069 0.121-0.123 0.213-0.162s0.197-0.058 0.312-0.058c0.116 0 0.219 0.021 0.31 0.064s0.161 0.101 0.211 0.178c0.051 0.076 0.076 0.164 0.076 0.261h-0.335c0-0.074-0.023-0.132-0.070-0.173-0.047-0.042-0.113-0.062-0.197-0.062-0.082 0-0.146 0.018-0.191 0.053-0.042 0.030-0.068 0.078-0.068 0.132 0 0.001 0 0.003 0 0.004v-0c0 0.053 0.027 0.097 0.079 0.133s0.132 0.069 0.235 0.1c0.19 0.057 0.329 0.128 0.416 0.213s0.131 0.19 0.131 0.317c0 0.141-0.053 0.251-0.16 0.331s-0.249 0.12-0.429 0.12c-0.125 0-0.239-0.023-0.342-0.069-0.096-0.041-0.176-0.105-0.234-0.187l-0.001-0.002c-0.050-0.075-0.080-0.167-0.080-0.267 0-0.004 0-0.007 0-0.011l-0 0.001h0.336c0 0.179 0.107 0.269 0.322 0.269 0.080 0 0.142-0.016 0.187-0.048 0.041-0.029 0.067-0.076 0.067-0.13 0-0.002-0-0.004-0-0.007l0 0zM14.546 12.439h-0.498v1.354h-0.335v-1.354h-0.49v-0.271h1.323v0.271zM15.715 13.089h-0.643v0.435h0.754v0.269h-1.089v-1.626h1.087v0.271h-0.752v0.387h0.643v0.262zM16.625 13.198h-0.267v0.595h-0.335v-1.626h0.604c0.192 0 0.34 0.043 0.444 0.128s0.156 0.206 0.156 0.363c0 0.111-0.024 0.204-0.072 0.278-0.054 0.078-0.128 0.139-0.214 0.175l-0.003 0.001 0.351 0.664v0.015h-0.359l-0.305-0.594zM16.358 12.927h0.27c0.084 0 0.149-0.021 0.195-0.063 0.043-0.042 0.069-0.1 0.069-0.165 0-0.004-0-0.009-0-0.013l0 0.001c0-0.077-0.022-0.137-0.066-0.181s-0.11-0.066-0.2-0.066h-0.269v0.488zM18.387 13.221v0.573h-0.335v-1.626h0.634c0.122 0 0.229 0.022 0.322 0.067s0.165 0.108 0.214 0.191c0.050 0.082 0.075 0.175 0.075 0.28 0 0.159-0.055 0.285-0.164 0.377s-0.259 0.138-0.452 0.138h-0.293zM18.387 12.949h0.299c0.089 0 0.156-0.021 0.202-0.062 0.047-0.042 0.070-0.101 0.070-0.179 0-0.004 0-0.008 0-0.012 0-0.070-0.027-0.134-0.071-0.181l0 0c-0.047-0.049-0.112-0.074-0.194-0.076h-0.307v0.51zM20.506 13.089h-0.643v0.435h0.754v0.269h-1.089v-1.626h1.087v0.271h-0.752v0.387h0.643v0.262zM22.059 12.439h-0.498v1.354h-0.335v-1.354h-0.491v-0.271h1.324v0.271zM23.229 13.089h-0.642v0.435h0.754v0.269h-1.090v-1.626h1.087v0.271h-0.752v0.387h0.643v0.262zM24.139 13.198h-0.267v0.595h-0.335v-1.626h0.604c0.192 0 0.34 0.043 0.444 0.128s0.156 0.206 0.156 0.363c0 0.111-0.024 0.204-0.072 0.278-0.054 0.078-0.128 0.139-0.215 0.175l-0.003 0.001 0.352 0.664v0.015h-0.359l-0.305-0.594zM23.872 12.927h0.27c0.084 0 0.149-0.021 0.195-0.063 0.043-0.042 0.070-0.101 0.070-0.165 0-0.004-0-0.008-0-0.013l0 0.001c0-0.077-0.022-0.137-0.066-0.181-0.043-0.044-0.11-0.066-0.2-0.066h-0.269v0.488zM25.84 13.367c0-0.003 0-0.006 0-0.010 0-0.055-0.026-0.104-0.067-0.135l-0-0c-0.045-0.034-0.125-0.070-0.241-0.107-0.107-0.033-0.198-0.071-0.285-0.116l0.010 0.005c-0.185-0.1-0.277-0.234-0.277-0.403 0-0.088 0.025-0.166 0.074-0.234 0.050-0.069 0.121-0.123 0.213-0.162s0.197-0.058 0.312-0.058c0.116 0 0.219 0.021 0.31 0.064s0.161 0.101 0.211 0.178c0.051 0.076 0.076 0.164 0.076 0.261h-0.335c0-0.074-0.023-0.132-0.070-0.173-0.047-0.042-0.113-0.062-0.197-0.062-0.082 0-0.146 0.018-0.191 0.053-0.042 0.030-0.069 0.078-0.069 0.133 0 0.001 0 0.002 0 0.004v-0c0 0.053 0.027 0.097 0.080 0.133s0.132 0.069 0.235 0.1c0.19 0.057 0.329 0.128 0.416 0.213s0.131 0.19 0.131 0.317c0 0.141-0.053 0.251-0.16 0.331s-0.25 0.12-0.429 0.12c-0.125 0-0.239-0.023-0.342-0.069-0.096-0.041-0.176-0.105-0.234-0.187l-0.001-0.002c-0.050-0.075-0.080-0.167-0.080-0.267 0-0.004 0-0.007 0-0.011l-0 0.001h0.336c0 0.179 0.107 0.269 0.322 0.269 0.080 0 0.142-0.016 0.186-0.048 0.041-0.029 0.067-0.076 0.067-0.13 0-0.002-0-0.004-0-0.006l0 0z"></path>
</symbol>
<symbol id="client5" viewBox="0 0 21 16">
<path  d="M1.619 13.186c0.083 0.094 0.127 0.212 0.125 0.333 0 0.008 0.001 0.016 0.001 0.025 0 0.074-0.017 0.145-0.046 0.208l0.001-0.003c-0.036 0.076-0.086 0.139-0.148 0.189l-0.001 0.001c-0.141 0.097-0.315 0.155-0.503 0.155-0.021 0-0.041-0.001-0.061-0.002l0.003 0h-0.989v-2.107h0.968c0.017-0.001 0.037-0.002 0.057-0.002 0.178 0 0.344 0.053 0.483 0.143l-0.003-0.002c0.063 0.048 0.112 0.109 0.145 0.177s0.047 0.143 0.043 0.218c0.005 0.116-0.034 0.23-0.112 0.322-0.075 0.084-0.179 0.142-0.295 0.165 0.131 0.022 0.25 0.086 0.334 0.18zM0.46 12.868h0.414c0.094 0.006 0.187-0.019 0.263-0.070 0.030-0.025 0.054-0.056 0.070-0.092l0.001-0.002c0.012-0.027 0.019-0.059 0.019-0.092 0-0.007-0-0.014-0.001-0.021l0 0.001c0-0.005 0.001-0.011 0.001-0.018 0-0.034-0.007-0.066-0.020-0.096l0.001 0.002c-0.016-0.037-0.040-0.069-0.069-0.094l-0-0c-0.067-0.045-0.149-0.072-0.238-0.072-0.012 0-0.023 0-0.034 0.001l0.001-0h-0.407v0.553zM1.178 13.677c0.032-0.026 0.058-0.058 0.076-0.095l0.001-0.002c0.014-0.030 0.022-0.064 0.022-0.101 0-0.006-0-0.012-0.001-0.017l0 0.001c0-0.005 0-0.010 0-0.015 0-0.038-0.008-0.073-0.024-0.105l0.001 0.001c-0.019-0.039-0.045-0.071-0.077-0.097l-0.001-0c-0.071-0.048-0.159-0.077-0.254-0.077-0.010 0-0.019 0-0.029 0.001l0.001-0h-0.434v0.58h0.44c0.099 0.005 0.197-0.020 0.278-0.073zM3.598 14.093l-0.538-0.824h-0.203v0.824h-0.463v-2.108h0.877c0.019-0.001 0.041-0.002 0.063-0.002 0.206 0 0.397 0.068 0.55 0.183l-0.002-0.002c0.123 0.114 0.197 0.265 0.209 0.425 0.001 0.013 0.002 0.029 0.002 0.044 0 0.154-0.055 0.294-0.146 0.404l0.001-0.001c-0.109 0.112-0.253 0.189-0.414 0.214l-0.004 0.001 0.574 0.842h-0.504zM2.858 12.981h0.379c0.263 0 0.395-0.106 0.395-0.319 0-0.005 0.001-0.011 0.001-0.017 0-0.040-0.008-0.078-0.023-0.113l0.001 0.002c-0.018-0.043-0.043-0.079-0.075-0.109l-0-0c-0.072-0.054-0.163-0.087-0.261-0.087-0.013 0-0.026 0.001-0.038 0.002l0.002-0h-0.383l0.004 0.641zM6.131 13.668h-0.923l-0.163 0.425h-0.486l0.848-2.084h0.525l0.845 2.084h-0.485l-0.16-0.424zM6.007 13.349l-0.337-0.89-0.337 0.89h0.675zM9.301 14.093h-0.46l-1.031-1.433v1.433h-0.459v-2.108h0.459l1.031 1.442v-1.442h0.46v2.108zM11.926 13.588c-0.095 0.159-0.24 0.289-0.416 0.372-0.179 0.084-0.388 0.133-0.609 0.133-0.013 0-0.026-0-0.039-0.001l0.002 0h-0.818v-2.108h0.819c0.011-0 0.025-0.001 0.039-0.001 0.22 0 0.429 0.048 0.618 0.134l-0.009-0.004c0.176 0.082 0.321 0.21 0.416 0.368 0.095 0.172 0.144 0.361 0.144 0.553s-0.049 0.381-0.144 0.553zM11.4 13.538c0.125-0.131 0.202-0.308 0.203-0.503v-0c0-0.185-0.072-0.363-0.203-0.503-0.143-0.113-0.325-0.181-0.523-0.181-0.019 0-0.037 0.001-0.055 0.002l0.002-0h-0.319v1.364h0.319c0.016 0.001 0.034 0.002 0.053 0.002 0.198 0 0.381-0.068 0.525-0.182l-0.002 0.001zM6.419 0.261s5.936 2.052 5.811 5.022v5.023s-5.932-2.053-5.809-5.023l-0.002-5.022zM17.518 9.13c1.121-0.706 2.418-1.144 3.772-1.273v-1.573c-1.56 0.551-2.883 1.549-3.772 2.845z"></path>
<path  d="M16.845 9.603c0.917-1.692 2.508-2.997 4.445-3.648v-4.53s-8.454 2.923-8.276 7.152v7.151s0.377-0.131 0.97-0.376c0-0.228 0-0.459 0.027-0.691 0.175-1.963 1.194-3.782 2.834-5.058z"></path>
<path  d="M16.041 12.26c0.044-0.496 0.143-0.987 0.296-1.464-1.021 1.101-1.639 2.468-1.768 3.908-0.013 0.136-0.019 0.272-0.022 0.412 0.705-0.309 1.239-0.571 1.762-0.851l-0.136 0.067c-0.15-0.681-0.194-1.378-0.131-2.071zM16.377 12.286c-0.017 0.174-0.026 0.376-0.026 0.58 0 0.458 0.048 0.905 0.138 1.337l-0.007-0.042c2.31-1.266 4.906-3.221 4.805-5.584v-0.206c-1.65 0.169-3.194 0.83-4.395 1.88-0.265 0.595-0.448 1.285-0.513 2.009l-0.002 0.025z"></path>
</symbol>
<symbol id="client6" viewBox="0 0 33 16">
<path  d="M16.862 7.612c-0.136-0.175-0.217-0.397-0.217-0.639 0-0.024 0.001-0.048 0.002-0.071l-0 0.003v-1.025c0-0.314 0.071-0.553 0.214-0.716s0.387-0.245 0.734-0.244c0.326 0 0.558 0.070 0.694 0.209 0.149 0.177 0.222 0.394 0.206 0.613v0.241h-0.583v-0.244c0.002-0.080-0.004-0.16-0.017-0.239-0.010-0.058-0.040-0.107-0.083-0.142l-0-0c-0.052-0.035-0.117-0.056-0.186-0.056-0.009 0-0.017 0-0.026 0.001l0.001-0c-0.008-0.001-0.016-0.001-0.025-0.001-0.073 0-0.142 0.022-0.198 0.060l0.001-0.001c-0.048 0.039-0.083 0.093-0.096 0.155l-0 0.002c-0.015 0.070-0.023 0.151-0.023 0.234 0 0.007 0 0.014 0 0.021l-0-0.001v1.244c-0.009 0.12 0.017 0.24 0.075 0.349 0.030 0.037 0.070 0.067 0.115 0.084l0.002 0.001c0.034 0.014 0.074 0.022 0.115 0.022 0.012 0 0.025-0.001 0.037-0.002l-0.001 0c0.007 0.001 0.016 0.001 0.025 0.001 0.068 0 0.131-0.021 0.183-0.058l-0.001 0.001c0.045-0.038 0.077-0.090 0.087-0.15l0-0.002c0.014-0.082 0.020-0.166 0.018-0.249v-0.252h0.583v0.23c0.001 0.018 0.002 0.039 0.002 0.061 0 0.221-0.077 0.425-0.205 0.586l0.001-0.002c-0.134 0.152-0.363 0.228-0.698 0.228s-0.59-0.081-0.733-0.25zM19.291 7.622c-0.148-0.16-0.221-0.392-0.221-0.7v-1.078c0-0.305 0.074-0.535 0.221-0.692s0.394-0.234 0.739-0.234c0.343 0 0.588 0.078 0.736 0.234 0.147 0.156 0.222 0.387 0.222 0.692v1.078c0 0.305-0.075 0.538-0.225 0.699s-0.394 0.241-0.733 0.241-0.591-0.081-0.74-0.24zM20.302 7.364c0.053-0.1 0.077-0.209 0.070-0.319v-1.321c0.001-0.011 0.001-0.023 0.001-0.036 0-0.102-0.026-0.197-0.071-0.28l0.002 0.003c-0.031-0.038-0.071-0.068-0.117-0.085l-0.002-0.001c-0.034-0.013-0.073-0.021-0.114-0.021-0.014 0-0.028 0.001-0.041 0.003l0.002-0c-0.012-0.002-0.026-0.002-0.039-0.002-0.041 0-0.081 0.008-0.117 0.022l0.002-0.001c-0.048 0.018-0.089 0.048-0.119 0.086l-0 0c-0.053 0.097-0.077 0.205-0.070 0.313v1.326c-0.007 0.11 0.017 0.219 0.070 0.319 0.034 0.033 0.076 0.060 0.123 0.079 0.044 0.018 0.096 0.028 0.15 0.028s0.105-0.010 0.153-0.029l-0.003 0.001c0.047-0.018 0.089-0.046 0.123-0.079v-0.006zM21.69 4.951h0.628l0.472 1.989 0.484-1.989h0.611l0.062 2.871h-0.452l-0.048-1.996-0.466 1.996h-0.363l-0.483-2.003-0.045 2.003h-0.457l0.057-2.871zM24.651 4.951h0.978c0.564 0 0.846 0.272 0.846 0.815 0 0.521-0.297 0.781-0.89 0.78h-0.333v1.276h-0.604l0.004-2.872zM25.487 6.178c0.060 0.007 0.12 0.002 0.178-0.014s0.11-0.042 0.154-0.077c0.069-0.097 0.1-0.211 0.087-0.324 0-0.009 0.001-0.020 0.001-0.032 0-0.081-0.011-0.16-0.031-0.235l0.001 0.006c-0.010-0.031-0.025-0.057-0.045-0.079l0 0c-0.021-0.024-0.046-0.043-0.075-0.057l-0.001-0.001c-0.070-0.030-0.152-0.047-0.238-0.047-0.011 0-0.022 0-0.033 0.001l0.002-0h-0.234v0.858h0.235zM27.346 4.951h0.649l0.666 2.871h-0.563l-0.132-0.662h-0.578l-0.135 0.662h-0.571l0.665-2.871zM27.9 6.828l-0.226-1.205-0.226 1.205h0.452zM29.197 4.951h0.423l0.809 1.638v-1.638h0.501v2.871h-0.402l-0.814-1.71v1.71h-0.518l0.001-2.871zM32.105 6.727l-0.673-1.772h0.567l0.411 1.139 0.385-1.139h0.555l-0.665 1.773v1.095h-0.58v-1.095zM17.795 9.078v0.15h-0.493v1.167h-0.207v-1.167h-0.495v-0.15h1.195zM19.34 10.395h-0.16c-0.001 0-0.003 0-0.004 0-0.015 0-0.029-0.005-0.041-0.013l0 0c-0.012-0.007-0.021-0.018-0.026-0.030l-0-0-0.143-0.313h-0.684l-0.142 0.313c-0.005 0.014-0.012 0.026-0.022 0.036l-0 0c-0.012 0.008-0.026 0.013-0.041 0.013-0.001 0-0.003-0-0.004-0h-0.159l0.604-1.317h0.21l0.612 1.312zM18.34 9.906h0.57l-0.242-0.536c-0.015-0.034-0.030-0.075-0.043-0.117l-0.002-0.007c-0.009 0.025-0.016 0.049-0.023 0.070l-0.022 0.055-0.239 0.535zM20.381 10.266c0.038 0.002 0.076 0.002 0.114 0 0.032-0.003 0.065-0.008 0.096-0.016 0.030-0.006 0.059-0.014 0.087-0.024 0.027-0.009 0.053-0.021 0.081-0.032v-0.296h-0.241c-0.001 0-0.001 0-0.002 0-0.012 0-0.022-0.004-0.031-0.011l0 0c-0.004-0.003-0.007-0.006-0.009-0.011l-0-0c-0.002-0.003-0.003-0.008-0.003-0.012 0-0 0-0.001 0-0.001v0-0.101h0.469v0.505c-0.073 0.046-0.158 0.082-0.248 0.106l-0.006 0.001c-0.050 0.013-0.1 0.022-0.151 0.027-0.059 0.005-0.117 0.008-0.176 0.008-0.002 0-0.005 0-0.008 0-0.106 0-0.208-0.018-0.303-0.051l0.006 0.002c-0.093-0.032-0.173-0.079-0.243-0.138l0.001 0.001c-0.065-0.057-0.117-0.126-0.154-0.204l-0.002-0.004c-0.035-0.078-0.056-0.169-0.056-0.265 0-0.003 0-0.006 0-0.009v0c-0-0.002-0-0.005-0-0.008 0-0.097 0.020-0.188 0.056-0.272l-0.002 0.004c0.034-0.078 0.088-0.149 0.156-0.209 0.069-0.059 0.151-0.106 0.242-0.137 0.103-0.034 0.213-0.050 0.324-0.049 0.056 0 0.112 0.004 0.168 0.011 0.049 0.007 0.097 0.018 0.144 0.033 0.043 0.014 0.083 0.031 0.121 0.052 0.037 0.021 0.072 0.043 0.105 0.069l-0.058 0.081c-0.005 0.008-0.011 0.014-0.019 0.018l-0 0c-0.008 0.004-0.018 0.007-0.028 0.007h-0c-0.014-0-0.027-0.004-0.038-0.011l0 0c-0.024-0.012-0.044-0.022-0.063-0.033l0.003 0.002c-0.023-0.013-0.049-0.025-0.077-0.034l-0.004-0.001c-0.031-0.011-0.068-0.021-0.107-0.028l-0.005-0.001c-0.044-0.007-0.094-0.011-0.145-0.011-0.003 0-0.006 0-0.008 0h0c-0.002-0-0.005-0-0.007-0-0.081 0-0.158 0.013-0.231 0.038l0.005-0.001c-0.067 0.023-0.128 0.059-0.178 0.104-0.048 0.045-0.086 0.099-0.111 0.161l-0.001 0.003c-0.026 0.065-0.040 0.141-0.040 0.22s0.015 0.154 0.042 0.224l-0.001-0.004c0.026 0.062 0.068 0.118 0.121 0.166 0.049 0.045 0.11 0.081 0.176 0.104 0.077 0.023 0.158 0.032 0.239 0.026zM22.306 10.245h0.66v0.15h-0.861v-1.317h0.206l-0.005 1.167zM23.652 10.395h-0.206v-1.317h0.206v1.317zM24.42 9.084c0.012 0.006 0.023 0.014 0.032 0.024l0 0 0.883 0.993c-0.001-0.007-0.001-0.015-0.001-0.023s0-0.016 0.001-0.025l-0 0.001v-0.981h0.18v1.323h-0.104c-0.002 0-0.004 0-0.007 0-0.014 0-0.027-0.003-0.039-0.008l0.001 0c-0.013-0.007-0.023-0.015-0.032-0.025l-0-0-0.882-0.992v1.024h-0.173v-1.317h0.107c0.012 0 0.023 0.002 0.034 0.006zM27.035 9.078v0.145h-0.732v0.435h0.593v0.14h-0.593v0.45h0.732v0.145h-0.944v-1.314h0.944zM5.391 0.944l9.172 2.248v7.878l-9.172-2.247v-7.88zM4.802 0.272v8.934l10.347 2.537v-8.933l-10.346-2.538z"></path>
<path  d="M10.348 15.89l-10.348-2.539v-8.933l10.348 2.538v8.934z"></path>
<path  d="M4.974 0.843l9.052 2.22-3.849 3.324-9.054-2.221 3.851-3.324zM4.802 0.273l-4.802 4.146 10.348 2.539 4.801-4.147-10.347-2.538zM10.93 15.388l4.219-3.644-4.22-1.035v4.679z"></path>
</symbol>
<symbol id="close-button" viewBox="0 0 32 32">
<path d="M32 3.223l-3.223-3.223-12.777 12.777-12.777-12.777-3.223 3.223 12.777 12.777-12.777 12.777 3.223 3.223 12.777-12.777 12.777 12.777 3.223-3.223-12.777-12.777 12.777-12.777z"></path>
</symbol>
<symbol id="icon-send" viewBox="0 0 32 32">
<path fill="#fff" style="fill: var(--color1, #fff)" d="M32 0l-32 18 10.227 3.787 15.773-14.787-11.997 16.187 0.009 0.003-0.012-0.003v8.813l5.735-6.691 7.267 2.691 4.999-28z"></path>
</symbol>
<symbol id="mod-email" viewBox="0 0 32 32">
<path d="M26.667 5.333h-21.333c-1.467 0-2.652 1.2-2.652 2.667l-0.014 16c0 1.467 1.2 2.667 2.667 2.667h21.333c1.467 0 2.667-1.2 2.667-2.667v-16c0-1.467-1.2-2.667-2.667-2.667zM26.133 11.001l-9.426 5.892c-0.201 0.126-0.446 0.2-0.708 0.2s-0.506-0.075-0.713-0.204l0.006 0.003-9.426-5.892c-0.336-0.201-0.557-0.562-0.557-0.975 0-0.625 0.507-1.132 1.132-1.132 0.233 0 0.449 0.070 0.629 0.19l-0.004-0.003 8.933 5.586 8.933-5.588c0.176-0.118 0.392-0.188 0.624-0.188 0.625 0 1.132 0.507 1.132 1.132 0 0.413-0.221 0.775-0.552 0.972l-0.005 0.003z"></path>
</symbol>
<symbol id="icon-checked" viewBox="0 0 34 32">
<path d="M4.267 0h25.6c2.356 0 4.267 1.91 4.267 4.267v23.467c0 2.356-1.91 4.267-4.267 4.267h-25.6c-2.356 0-4.267-1.91-4.267-4.267v-23.467c0-2.356 1.91-4.267 4.267-4.267z"></path>
<path fill="#fff" style="fill: var(--color2, #fff); stroke: var(--color2, #fff)" stroke="#fff" stroke-linejoin="miter" stroke-linecap="butt" stroke-miterlimit="4" stroke-width="0.4267" d="M8.442 16.538l-0.147-0.141-0.147 0.139-2.057 1.95 0.162 0.156 7.605 7.253 0.147-0.141 16.171-15.426-0.162-0.154-2.029-1.935-0.147 0.141-13.98 13.325-5.417-5.167z"></path>
</symbol>
<symbol id="mod-person" viewBox="0 0 32 32">
<path d="M16 16c2.946 0 5.333-2.388 5.333-5.333s-2.388-5.333-5.333-5.333v0c-2.946 0-5.333 2.388-5.333 5.333s2.388 5.333 5.333 5.333v0zM16 18.667c-3.561 0-10.667 1.787-10.667 5.333v1.333c0 0.732 0.599 1.333 1.333 1.333h18.667c0.732 0 1.333-0.601 1.333-1.333v-1.333c0-3.547-7.108-5.333-10.667-5.333z"></path>
</symbol>
<symbol id="mod-phone" viewBox="0 0 32 32">
<path d="M24.882 19.774l-3.268-0.373c-0.090-0.011-0.194-0.018-0.3-0.018-0.707 0-1.347 0.287-1.81 0.75l-2.368 2.368c-3.669-1.894-6.585-4.81-8.427-8.372l-0.051-0.108 2.382-2.377c0.463-0.463 0.75-1.103 0.75-1.81 0-0.106-0.006-0.21-0.019-0.312l0.001 0.012-0.373-3.243c-0.155-1.287-1.24-2.276-2.557-2.276-0.001 0-0.002 0-0.003 0h-2.226c-1.454 0-2.663 1.209-2.574 2.661 0.683 10.987 9.47 19.762 20.444 20.444 1.452 0.089 2.663-1.12 2.663-2.574v-2.226c0-0.004 0-0.008 0-0.012 0-1.308-0.985-2.386-2.253-2.532l-0.012-0.001z"></path>
</symbol>
<symbol id="icon-for-check" viewBox="0 0 34 32">
<path d="M30.341 3.556v24.889h-26.548v-24.889h26.548zM30.341 0h-26.548c-2.086 0-3.793 1.6-3.793 3.556v24.889c0 1.956 1.707 3.556 3.793 3.556h26.548c2.086 0 3.793-1.6 3.793-3.556v-24.889c0-1.956-1.707-3.556-3.793-3.556z"></path>
</symbol>
</defs>
</svg>
